<?xml version="1.0" encoding="UTF-8" standalone="no"?><svg xmlns="http://www.w3.org/2000/svg" xmlns:xlink="http://www.w3.org/1999/xlink" fill="#db9301" height="272" preserveAspectRatio="xMidYMid meet" version="1" viewBox="16.0 120.0 480.0 272.0" width="480" zoomAndPan="magnify"><g id="change1_1"><path d="M384,144c-14.124,0-27.841,2.591-40.838,7.689C319.542,131.92,289.139,120,256,120c-33.137,0-63.538,11.918-87.158,31.686 C155.838,146.586,142.112,144,128,144c-61.757,0-112,50.243-112,112s50.243,112,112,112c14.111,0,27.838-2.587,40.842-7.686 C192.461,380.081,222.863,392,256,392s63.539-11.919,87.158-31.686C356.163,365.413,369.889,368,384,368 c61.757,0,112-50.243,112-112S445.757,144,384,144z M120.946,272.004L112.944,256l8.002-16.004C120.328,245.247,120,250.586,120,256 S120.328,266.753,120.946,272.004z M131.669,200.912C130.553,200.334,129.305,200,128,200c-3.03,0-5.8,1.712-7.155,4.422l-24,48 c-1.126,2.252-1.126,4.903,0,7.155l24,48C122.2,310.288,124.97,312,128,312c1.305,0,2.553-0.334,3.669-0.912 c1.274,2.865,2.646,5.677,4.109,8.434C133.206,319.834,130.61,320,128,320c-35.29,0-64-28.71-64-64s28.71-64,64-64 c2.61,0,5.206,0.166,7.778,0.478C134.315,195.235,132.944,198.047,131.669,200.912z M32,256c0-52.935,43.065-96,96-96 c9.538,0,18.867,1.377,27.844,4.097c-3.961,4.313-7.648,8.881-11.033,13.677C139.309,176.598,133.677,176,128,176 c-44.112,0-80,35.888-80,80s35.888,80,80,80c5.677,0,11.309-0.598,16.812-1.775c3.385,4.797,7.072,9.365,11.033,13.678 C146.867,350.624,137.538,352,128,352C75.065,352,32,308.935,32,256z M136,256c0-66.168,53.832-120,120-120s120,53.832,120,120 s-53.832,120-120,120S136,322.168,136,256z M408,264c4.411,0,8,3.589,8,8s-3.589,8-8,8s-8-3.589-8-8S403.589,264,408,264z M391.977,254.151c-0.033-2.489-0.133-4.962-0.299-7.418c0.164-0.056,0.33-0.108,0.492-0.167l1.997,5.839 C393.404,252.946,392.671,253.527,391.977,254.151z M389.463,229.828c-0.901-4.601-2.031-9.121-3.384-13.544 c3.405,0.919,5.921,4.025,5.921,7.716C392,226.298,391.02,228.367,389.463,229.828z M388.627,286.144 C392.998,292.114,400.052,296,408,296c13.234,0,24-10.766,24-24c0-12.699-9.915-23.12-22.41-23.941l-4.388-12.829 c1.783-3.353,2.798-7.174,2.798-11.23c0-13.234-10.766-24-24-24c-1.329,0-2.639,0.109-3.928,0.321 c-1.199-2.661-2.487-5.274-3.849-7.841c2.574-0.311,5.172-0.48,7.777-0.48c35.29,0,64,28.71,64,64s-28.71,64-64,64 c-2.61,0-5.206-0.166-7.778-0.478C381.741,309.119,385.952,297.921,388.627,286.144z M384,352c-9.538,0-18.866-1.377-27.845-4.097 c3.961-4.313,7.648-8.881,11.033-13.677C372.691,335.402,378.323,336,384,336c44.112,0,80-35.888,80-80s-35.888-80-80-80 c-5.664,0-11.311,0.603-16.809,1.779c-3.385-4.797-7.072-9.365-11.033-13.679c8.973-2.719,18.296-4.1,27.842-4.1 c52.935,0,96,43.065,96,96S436.935,352,384,352z" fill="inherit"/></g><g id="change1_2"><path d="M256,152c-57.346,0-104,46.654-104,104s46.654,104,104,104s104-46.654,104-104S313.346,152,256,152z M256,344 c-37.24,0-69.148-23.252-81.976-56H200c4.418,0,8-3.582,8-8s-3.582-8-8-8h-30.538c-0.957-5.19-1.462-10.537-1.462-16h16 c4.418,0,8-3.582,8-8v-8h8c4.418,0,8-3.582,8-8s-3.582-8-8-8h-16c-4.418,0-8,3.582-8,8v8h-6.538c7.546-40.91,43.478-72,86.538-72 c40.206,0,74.201,27.104,84.673,64H320c-4.418,0-8,3.582-8,8s3.582,8,8,8h23.633c0.239,2.636,0.367,5.303,0.367,8 s-0.129,5.364-0.367,8H321c-4.418,0-8,3.582-8,8v16c0,4.418,3.582,8,8,8s8-3.582,8-8v-8h11.673C330.201,316.896,296.206,344,256,344 z" fill="inherit"/></g><g id="change1_3"><path d="M304,232c0-14.884-10.214-27.426-24-30.987V192c0-4.418-3.582-8-8-8s-8,3.582-8,8v8h-16v-8c0-4.418-3.582-8-8-8 s-8,3.582-8,8v8h-16c-4.418,0-8,3.582-8,8s3.582,8,8,8h8v40v40h-8c-4.418,0-8,3.582-8,8s3.582,8,8,8h16v8c0,4.418,3.582,8,8,8 s8-3.582,8-8v-8h16v8c0,4.418,3.582,8,8,8s8-3.582,8-8v-9.013c13.786-3.561,24-16.104,24-30.987c0-9.551-4.211-18.132-10.868-24 C299.789,250.132,304,241.551,304,232z M288,280c0,8.822-7.178,16-16,16h-32v-32h32C280.822,264,288,271.178,288,280z M240,248v-32 h32c8.822,0,16,7.178,16,16s-7.178,16-16,16H240z" fill="inherit"/></g></svg>