<?xml version="1.0" encoding="UTF-8"?><svg xmlns="http://www.w3.org/2000/svg" xmlns:xlink="http://www.w3.org/1999/xlink" height="143.1" preserveAspectRatio="xMidYMid meet" version="1.0" viewBox="0.0 0.0 195.5 143.1" width="195.5" zoomAndPan="magnify"><g id="change1_1"><path d="M191.11 91.81L119.27 35.23 77.95 50.6 144.8 108.99z" fill="#ffc200"/></g><g id="change2_1"><path d="M108.25 77.22L140.73 52.13 119.27 35.23 77.95 50.6z" fill="#f2b200"/></g><g id="change3_1"><path d="M110.5,61.5L98.23,51.29l20.42-8.13l9.95,8.87l-2.31,2.59l-8.35-7.45l-13.01,5.18l6.34,5.28l3.54-1.09 l-2.88-2.97l2.49-2.41l6.81,7.03L110.5,61.5z M145.98,66.43l-11.75-8.24l-20.91,7.56l10.57,9.47L145.98,66.43z M133.71,62.06 l5.02,3.52L124.6,71.2l-4.65-4.16L133.71,62.06z M140.75,84.87l-7.32-5.99l16.39-5.76l-1.15-3.27l-22.21,7.81l12.1,9.89 L140.75,84.87z M168.47,92.38l-7.25-12l-21.96,10.35l15.18,6.93L168.47,92.38z M159.86,84.85l3.48,5.75l-8.78,3.3l-7.07-3.23 L159.86,84.85z" fill="#e09b00"/></g><g id="change3_2"><path d="M77.95 50.6L76.28 79.6 143.4 141.46 144.8 108.99z" fill="#e09b00"/></g><g id="change4_1"><path d="M143.4 141.46L144.8 108.99 191.11 91.81 195.49 122.71z" fill="#ffcc4d"/></g><g id="change5_1"><path d="M108.25 77.22L98.95 100.49 76.28 79.6 77.95 50.6z" fill="#d89000"/></g><g id="change1_2"><path d="M0 98.47L46.04 116.49 119.27 14.15 74.06 0z" fill="#ffc200"/></g><g id="change4_2"><path d="M0 121.76L0 98.47 46.04 116.49 53.81 143.12z" fill="#ffcc4d"/></g><g id="change3_3"><path d="M119.27 14.15L133.97 30.51 53.81 143.12 46.04 116.49z" fill="#e09b00"/></g><g id="change3_4"><path d="M46.61,98.15L24.28,88.7l11.04-16.17l2.86,1.95l-8.65,12.67l15.94,6.75l8.1-10.77l-6.64-2.7l-2.91,4.42 l-2.9-1.91l4.47-6.8l13.45,5.47L46.61,98.15z M70.59,61.95l-20.7-9.42l-9.47,12.53l21.37,9.78L70.59,61.95z M50.98,56.84L65.4,63.4 l-4.83,7.07l-14.78-6.76L50.98,56.84z M83.56,41.3l-2.91-1.88l-6.13,9.5l-15.98-6.59l-1.32,3.21l18.65,7.69L83.56,41.3z M89.04,22.12l-11.35-3.79l-13.47,9.18l23.48,8.45L89.04,22.12z M78.22,22.16l7.1,2.37l-0.65,6.66l-12.89-4.64L78.22,22.16z" fill="#e09b00"/></g></svg>